<svg id="user_16" viewBox="0 0 16 16" fill="none" xmlns="http://www.w3.org/2000/svg"><circle cx="8" cy="5" r="2.5" stroke="currentColor" stroke-linecap="square"></circle><path d="M2.5 13.2857C2.5 11.1949 4.19492 9.5 6.28571 9.5H6.29241H6.29911H6.3058H6.3125H6.3192H6.32589H6.33259H6.33929H6.34598H6.35268H6.35938H6.36607H6.37277H6.37946H6.38616H6.39286H6.39955H6.40625H6.41295H6.41964H6.42634H6.43304H6.43973H6.44643H6.45312H6.45982H6.46652H6.47321H6.47991H6.48661H6.4933H6.5H6.5067H6.51339H6.52009H6.52679H6.53348H6.54018H6.54688H6.55357H6.56027H6.56696H6.57366H6.58036H6.58705H6.59375H6.60045H6.60714H6.61384H6.62054H6.62723H6.63393H6.64062H6.64732H6.65402H6.66071H6.66741H6.67411H6.6808H6.6875H6.6942H6.70089H6.70759H6.71429H6.72098H6.72768H6.73438H6.74107H6.74777H6.75446H6.76116H6.76786H6.77455H6.78125H6.78795H6.79464H6.80134H6.80804H6.81473H6.82143H6.82812H6.83482H6.84152H6.84821H6.85491H6.86161H6.8683H6.875H6.8817H6.88839H6.89509H6.90179H6.90848H6.91518H6.92188H6.92857H6.93527H6.94196H6.94866H6.95536H6.96205H6.96875H6.97545H6.98214H6.98884H6.99554H7.00223H7.00893H7.01562H7.02232H7.02902H7.03571H7.04241H7.04911H7.0558H7.0625H7.0692H7.07589H7.08259H7.08929H7.09598H7.10268H7.10938H7.11607H7.12277H7.12946H7.13616H7.14286H7.14955H7.15625H7.16295H7.16964H7.17634H7.18304H7.18973H7.19643H7.20312H7.20982H7.21652H7.22321H7.22991H7.23661H7.2433H7.25H7.2567H7.26339H7.27009H7.27679H7.28348H7.29018H7.29688H7.30357H7.31027H7.31696H7.32366H7.33036H7.33705H7.34375H7.35045H7.35714H7.36384H7.37054H7.37723H7.38393H7.39062H7.39732H7.40402H7.41071H7.41741H7.42411H7.4308H7.4375H7.4442H7.45089H7.45759H7.46429H7.47098H7.47768H7.48438H7.49107H7.49777H7.50446H7.51116H7.51786H7.52455H7.53125H7.53795H7.54464H7.55134H7.55804H7.56473H7.57143H7.57812H7.58482H7.59152H7.59821H7.60491H7.61161H7.6183H7.625H7.6317H7.63839H7.64509H7.65179H7.65848H7.66518H7.67188H7.67857H7.68527H7.69196H7.69866H7.70536H7.71205H7.71875H7.72545H7.73214H7.73884H7.74554H7.75223H7.75893H7.76562H7.77232H7.77902H7.78571H7.79241H7.79911H7.8058H7.8125H7.8192H7.82589H7.83259H7.83929H7.84598H7.85268H7.85938H7.86607H7.87277H7.87946H7.88616H7.89286H7.89955H7.90625H7.91295H7.91964H7.92634H7.93304H7.93973H7.94643H7.95312H7.95982H7.96652H7.97321H7.97991H7.98661H7.9933H8H8.0067H8.01339H8.02009H8.02679H8.03348H8.04018H8.04688H8.05357H8.06027H8.06696H8.07366H8.08036H8.08705H8.09375H8.10045H8.10714H8.11384H8.12054H8.12723H8.13393H8.14062H8.14732H8.15402H8.16071H8.16741H8.17411H8.1808H8.1875H8.1942H8.20089H8.20759H8.21429H8.22098H8.22768H8.23438H8.24107H8.24777H8.25446H8.26116H8.26786H8.27455H8.28125H8.28795H8.29464H8.30134H8.30804H8.31473H8.32143H8.32812H8.33482H8.34152H8.34821H8.35491H8.36161H8.3683H8.375H8.3817H8.38839H8.39509H8.40179H8.40848H8.41518H8.42188H8.42857H8.43527H8.44196H8.44866H8.45536H8.46205H8.46875H8.47545H8.48214H8.48884H8.49554H8.50223H8.50893H8.51562H8.52232H8.52902H8.53571H8.54241H8.54911H8.5558H8.5625H8.5692H8.57589H8.58259H8.58929H8.59598H8.60268H8.60938H8.61607H8.62277H8.62946H8.63616H8.64286H8.64955H8.65625H8.66295H8.66964H8.67634H8.68304H8.68973H8.69643H8.70312H8.70982H8.71652H8.72321H8.72991H8.73661H8.7433H8.75H8.7567H8.76339H8.77009H8.77679H8.78348H8.79018H8.79688H8.80357H8.81027H8.81696H8.82366H8.83036H8.83705H8.84375H8.85045H8.85714H8.86384H8.87054H8.87723H8.88393H8.89062H8.89732H8.90402H8.91071H8.91741H8.92411H8.9308H8.9375H8.9442H8.95089H8.95759H8.96429H8.97098H8.97768H8.98438H8.99107H8.99777H9.00446H9.01116H9.01786H9.02455H9.03125H9.03795H9.04464H9.05134H9.05804H9.06473H9.07143H9.07812H9.08482H9.09152H9.09821H9.10491H9.11161H9.1183H9.125H9.1317H9.13839H9.14509H9.15179H9.15848H9.16518H9.17188H9.17857H9.18527H9.19196H9.19866H9.20536H9.21205H9.21875H9.22545H9.23214H9.23884H9.24554H9.25223H9.25893H9.26562H9.27232H9.27902H9.28571H9.29241H9.29911H9.3058H9.3125H9.3192H9.32589H9.33259H9.33929H9.34598H9.35268H9.35938H9.36607H9.37277H9.37946H9.38616H9.39286H9.39955H9.40625H9.41295H9.41964H9.42634H9.43304H9.43973H9.44643H9.45312H9.45982H9.46652H9.47321H9.47991H9.48661H9.4933H9.5H9.5067H9.51339H9.52009H9.52679H9.53348H9.54018H9.54688H9.55357H9.56027H9.56696H9.57366H9.58036H9.58705H9.59375H9.60045H9.60714H9.61384H9.62054H9.62723H9.63393H9.64062H9.64732H9.65402H9.66071H9.66741H9.67411H9.6808H9.6875H9.6942H9.70089H9.70759H9.71429C11.8051 9.5 13.5 11.1949 13.5 13.2857C13.5 13.403 13.404 13.5 13.2845 13.5H13.261H13.2375H13.2141H13.1906H13.1673H13.1439H13.1206H13.0973H13.074H13.0508H13.0276H13.0045H12.9814H12.9583H12.9352H12.9122H12.8892H12.8662H12.8433H12.8204H12.7975H12.7747H12.7519H12.7291H12.7064H12.6837H12.661H12.6383H12.6157H12.5931H12.5706H12.548H12.5255H12.5031H12.4806H12.4582H12.4358H12.4135H12.3911H12.3688H12.3466H12.3243H12.3021H12.2799H12.2578H12.2356H12.2135H12.1915H12.1694H12.1474H12.1254H12.1034H12.0815H12.0596H12.0377H12.0158H11.994H11.9722H11.9504H11.9287H11.9069H11.8852H11.8636H11.8419H11.8203H11.7987H11.7771H11.7556H11.7341H11.7126H11.6911H11.6696H11.6482H11.6268H11.6054H11.5841H11.5627H11.5414H11.5202H11.4989H11.4777H11.4565H11.4353H11.4141H11.393H11.3718H11.3507H11.3297H11.3086H11.2876H11.2666H11.2456H11.2246H11.2037H11.1827H11.1618H11.141H11.1201H11.0993H11.0784H11.0576H11.0369H11.0161H10.9954H10.9747H10.954H10.9333H10.9126H10.892H10.8714H10.8508H10.8302H10.8096H10.7891H10.7686H10.7481H10.7276H10.7071H10.6867H10.6662H10.6458H10.6254H10.6051H10.5847H10.5644H10.544H10.5237H10.5034H10.4832H10.4629H10.4427H10.4225H10.4023H10.3821H10.3619H10.3417H10.3216H10.3015H10.2814H10.2613H10.2412H10.2211H10.2011H10.181H10.161H10.141H10.121H10.101H10.0811H10.0611H10.0412H10.0213H10.0014H9.98148H9.9616H9.94173H9.92188H9.90204H9.88222H9.8624H9.8426H9.82281H9.80304H9.78328H9.76353H9.74379H9.72406H9.70434H9.68464H9.66495H9.64527H9.6256H9.60594H9.58629H9.56666H9.54703H9.52742H9.50781H9.48822H9.46863H9.44906H9.4295H9.40994H9.3904H9.37086H9.35134H9.33182H9.31231H9.29281H9.27333H9.25384H9.23437H9.21491H9.19545H9.17601H9.15657H9.13714H9.11771H9.0983H9.07889H9.05949H9.0401H9.02071H9.00133H8.98196H8.96259H8.94323H8.92388H8.90454H8.8852H8.86586H8.84653H8.82721H8.8079H8.78859H8.76928H8.74998H8.73069H8.7114H8.69211H8.67283H8.65356H8.63428H8.61502H8.59576H8.5765H8.55724H8.53799H8.51875H8.4995H8.48026H8.46103H8.44179H8.42256H8.40334H8.38411H8.36489H8.34567H8.32645H8.30724H8.28803H8.26881H8.24961H8.2304H8.21119H8.19199H8.17279H8.15358H8.13438H8.11519H8.09599H8.07679H8.05759H8.03839H8.0192H8H7.9808H7.96161H7.94241H7.92321H7.90401H7.88482H7.86562H7.84642H7.82721H7.80801H7.78881H7.7696H7.75039H7.73119H7.71198H7.69276H7.67355H7.65433H7.63511H7.61589H7.59667H7.57744H7.55821H7.53897H7.51974H7.5005H7.48126H7.46201H7.44276H7.4235H7.40425H7.38498H7.36572H7.34645H7.32717H7.30789H7.2886H7.26931H7.25002H7.23072H7.21141H7.1921H7.17279H7.15347H7.13414H7.1148H7.09546H7.07612H7.05677H7.03741H7.01804H6.99867H6.97929H6.9599H6.94051H6.92111H6.9017H6.88229H6.86286H6.84343H6.82399H6.80455H6.78509H6.76563H6.74616H6.72668H6.70719H6.68769H6.66818H6.64866H6.62914H6.6096H6.59006H6.5705H6.55094H6.53137H6.51178H6.49219H6.47258H6.45297H6.43334H6.41371H6.39406H6.3744H6.35473H6.33505H6.31536H6.29566H6.27594H6.25621H6.23647H6.21672H6.19696H6.17719H6.1574H6.1376H6.11778H6.09796H6.07812H6.05827H6.0384H6.01852H5.99863H5.97873H5.95881H5.93887H5.91893H5.89896H5.87899H5.859H5.83899H5.81897H5.79894H5.77889H5.75883H5.73875H5.71865H5.69854H5.67841H5.65827H5.63811H5.61794H5.59775H5.57754H5.55732H5.53708H5.51683H5.49655H5.47626H5.45596H5.43563H5.41529H5.39493H5.37456H5.35416H5.33375H5.31332H5.29287H5.27241H5.25192H5.23142H5.2109H5.19036H5.1698H5.14922H5.12862H5.108H5.08737H5.06671H5.04603H5.02534H5.00462H4.98389H4.96313H4.94235H4.92156H4.90074H4.8799H4.85904H4.83816H4.81726H4.79634H4.77539H4.75442H4.73344H4.71243H4.6914H4.67034H4.64927H4.62817H4.60705H4.5859H4.56474H4.54355H4.52234H4.5011H4.47984H4.45856H4.43725H4.41593H4.39457H4.3732H4.35179H4.33037H4.30892H4.28745H4.26595H4.24442H4.22287H4.2013H4.1797H4.15808H4.13643H4.11475H4.09305H4.07133H4.04957H4.0278H4.00599H3.98416H3.9623H3.94042H3.91851H3.89657H3.87461H3.85261H3.83059H3.80855H3.78647H3.76437H3.74224H3.72009H3.6979H3.67569H3.65344H3.63117H3.60888H3.58655H3.56419H3.5418H3.51939H3.49695H3.47447H3.45197H3.42944H3.40688H3.38428H3.36166H3.33901H3.31633H3.29361H3.27087H3.24809H3.22529H3.20245H3.17958H3.15669H3.13376H3.11079H3.0878H3.06478H3.04172H3.01863H2.99551H2.97236H2.94917H2.92595H2.9027H2.87942H2.8561H2.83275H2.80937H2.78595H2.7625H2.73902H2.7155C2.59605 13.5 2.5 13.403 2.5 13.2857Z" stroke="currentColor" stroke-linecap="square"></path></svg>